<?xml version="1.0" standalone="no"?>
<!DOCTYPE svg PUBLIC "-//W3C//DTD SVG 20010904//EN"
 "http://www.w3.org/TR/2001/REC-SVG-20010904/DTD/svg10.dtd">
<svg version="1.0" xmlns="http://www.w3.org/2000/svg"
 width="300.000000pt" height="300.000000pt" viewBox="0 0 300.000000 300.000000"
 preserveAspectRatio="xMidYMid meet">
<metadata>
Created by potrace 1.10, written by Peter Selinger 2001-2011
</metadata>
<g transform="translate(0.000000,300.000000) scale(0.100000,-0.100000)"
fill="#000000" stroke="none">
<path d="M610 2753 c-134 -137 -327 -333 -429 -438 -102 -104 11 6 252 245
240 239 437 436 437 437 0 16 -51 -33 -260 -244z"/>
<path d="M2565 2573 c236 -238 431 -430 434 -427 5 5 -647 656 -794 794 -39
36 123 -130 360 -367z"/>
<path d="M517 2482 l-407 -407 0 -575 0 -575 408 -408 407 -407 575 0 575 0
408 408 407 407 0 575 0 575 -408 408 -407 407 -575 0 -575 0 -408 -408z
m1940 -24 l393 -392 0 -566 0 -565 -393 -392 -392 -393 -565 0 -565 0 -392
393 -393 392 0 565 0 564 393 393 392 393 565 0 564 0 393 -392z"/>
<path d="M605 1991 c-117 -29 -187 -140 -186 -298 0 -68 5 -91 25 -131 45 -88
79 -113 254 -187 64 -27 92 -66 92 -125 0 -62 -33 -105 -88 -115 -73 -12 -123
26 -148 113 -19 65 -44 92 -84 92 -66 0 -89 -75 -56 -184 63 -208 290 -284
435 -145 108 104 124 349 30 462 -33 40 -87 79 -129 92 -59 19 -150 67 -165
87 -8 13 -15 41 -15 64 0 35 5 47 31 68 63 53 138 25 166 -63 23 -71 55 -96
101 -80 18 6 37 19 42 29 28 52 -5 177 -65 248 -56 64 -153 94 -240 73z m150
-50 c73 -34 119 -108 131 -214 l7 -57 -40 0 c-40 0 -41 0 -47 44 -8 52 -41
105 -76 124 -35 18 -124 10 -151 -14 -47 -41 -63 -128 -34 -184 17 -32 46 -49
168 -100 96 -40 130 -68 165 -134 23 -44 26 -63 26 -141 1 -76 -3 -98 -25
-145 -47 -99 -106 -140 -202 -140 -111 0 -189 65 -228 190 -26 85 -25 126 4
134 45 12 57 7 57 -21 0 -86 53 -161 127 -183 113 -34 203 46 191 171 -7 71
-29 96 -116 135 -141 62 -183 88 -213 129 -61 84 -62 237 -2 334 52 83 165
115 258 72z"/>
<path d="M1697 1986 c-83 -30 -157 -118 -203 -241 -25 -68 -36 -178 -32 -319
4 -120 8 -152 32 -220 91 -266 308 -346 473 -175 53 54 74 94 104 190 21 65
24 94 24 244 0 242 -31 342 -140 450 -82 83 -163 105 -258 71z m171 -45 c106
-54 169 -176 193 -371 25 -210 -27 -426 -127 -523 -77 -75 -188 -88 -271 -33
-196 130 -234 629 -66 850 69 90 182 122 271 77z"/>
<path d="M1704 1831 c-41 -25 -80 -76 -99 -131 -27 -75 -38 -227 -25 -332 21
-179 92 -278 200 -278 79 0 132 49 173 156 19 52 22 79 22 219 0 174 -11 229
-63 308 -49 74 -140 99 -208 58z m142 -43 c65 -45 104 -180 99 -345 -4 -130
-27 -211 -74 -264 -82 -91 -179 -58 -232 81 -26 69 -36 235 -20 338 27 174
128 258 227 190z"/>
<path d="M999 1979 c-48 -10 -61 -30 -61 -89 1 -74 19 -90 108 -94 38 -3 72
-5 76 -5 4 -1 9 -178 10 -395 3 -371 4 -395 22 -415 13 -14 31 -21 56 -21 70
0 68 -11 73 429 4 319 7 395 18 402 8 5 41 9 75 9 33 0 68 6 78 13 39 28 34
148 -6 162 -22 7 -415 10 -449 4z m451 -90 l0 -60 -100 3 -100 3 0 -422 0
-423 -40 0 -40 0 0 423 0 422 -100 -3 -100 -3 0 60 0 61 240 0 240 0 0 -61z"/>
<path d="M2151 1954 c-20 -25 -20 -37 -18 -489 2 -440 3 -464 21 -484 29 -32
88 -29 115 5 19 24 21 40 21 185 0 87 4 160 9 163 5 3 45 8 90 10 175 7 264
99 275 286 6 117 -29 246 -80 291 -11 10 -36 26 -57 38 -34 19 -54 21 -197 21
-158 0 -159 0 -179 -26z m318 -13 c60 -12 91 -38 125 -104 59 -118 41 -318
-37 -400 -41 -44 -88 -57 -209 -57 l-98 0 0 -195 0 -195 -40 0 -40 0 0 480 0
480 128 0 c70 -1 147 -5 171 -9z"/>
<path d="M2250 1661 l0 -173 103 4 c116 4 145 16 174 71 38 72 13 228 -40 256
-12 6 -70 12 -130 13 l-107 3 0 -174z m182 130 c55 -2 90 -81 74 -166 -11 -58
-42 -85 -108 -92 -31 -3 -68 -3 -82 1 l-26 6 0 124 c0 74 4 126 10 128 9 3 65
3 132 -1z"/>
<path d="M0 852 c0 -8 713 -718 810 -807 30 -27 -138 145 -375 383 -236 237
-431 432 -432 432 -2 0 -3 -4 -3 -8z"/>
<path d="M2570 425 c-234 -234 -420 -425 -415 -425 13 0 851 838 844 844 -3 3
-196 -186 -429 -419z"/>
</g>
</svg>
