<?xml version="1.0" standalone="no"?>
<!DOCTYPE svg PUBLIC "-//W3C//DTD SVG 20010904//EN"
 "http://www.w3.org/TR/2001/REC-SVG-20010904/DTD/svg10.dtd">
<svg version="1.0" xmlns="http://www.w3.org/2000/svg"
 width="300.000000pt" height="225.000000pt" viewBox="0 0 300.000000 225.000000"
 preserveAspectRatio="xMidYMid meet">
<metadata>
Created by potrace 1.10, written by Peter Selinger 2001-2011
</metadata>
<g transform="translate(0.000000,225.000000) scale(0.100000,-0.100000)"
fill="#000000" stroke="none">
<path d="M364 2243 c8 -8 -53 -63 -69 -63 -38 0 -126 -79 -148 -132 -10 -23
-24 -38 -40 -42 -14 -3 -43 -28 -66 -55 -39 -47 -41 -52 -41 -118 0 -63 3 -72
27 -95 48 -44 60 -43 112 11 31 32 53 66 62 95 9 33 19 46 36 51 13 3 23 10
23 15 0 6 5 10 10 10 13 0 90 79 90 93 0 6 -24 -12 -52 -40 -66 -64 -90 -76
-111 -60 -22 16 -37 60 -37 105 0 31 8 44 56 90 73 69 92 67 119 -10 11 -31
22 -57 25 -59 10 -5 110 33 110 42 0 5 6 9 14 9 7 0 33 16 57 35 24 19 51 35
60 35 8 0 24 7 35 16 19 15 19 15 -1 10 -11 -2 -30 -7 -42 -11 -21 -6 -23 -3
-23 34 0 23 -5 41 -10 41 -7 0 -8 -13 -5 -34 4 -19 2 -43 -4 -54 -12 -22 -141
-102 -165 -102 -21 0 -32 25 -39 88 l-6 52 47 25 47 25 -37 -2 c-21 -1 -36 -4
-34 -5z m-220 -275 c8 -13 6 -22 -9 -38 -10 -11 -25 -18 -32 -16 -21 9 -46
-39 -38 -74 4 -16 11 -28 16 -24 5 3 8 0 7 -7 -2 -6 2 -13 7 -15 14 -6 37 34
39 68 1 16 9 35 18 44 14 14 16 12 27 -14 14 -34 6 -55 -48 -129 -39 -54 -62
-55 -96 -6 -37 56 -33 98 16 172 43 65 70 76 93 39z m-28 -104 c-3 -9 -6 -20
-6 -25 0 -21 -16 -7 -18 16 -1 17 3 25 14 25 11 0 14 -5 10 -16z"/>
<path d="M89 1953 c-8 -10 -21 -27 -29 -38 -14 -19 -14 -19 4 -5 10 8 27 19
39 25 11 5 22 16 25 23 6 18 -23 15 -39 -5z"/>
<path d="M29 1864 c-5 -15 -7 -36 -3 -48 9 -29 44 -86 53 -86 15 0 91 118 91
140 0 12 -4 18 -10 15 -5 -3 -10 -15 -10 -27 0 -33 -32 -78 -56 -78 -24 0 -61
68 -51 94 4 9 4 16 1 16 -2 0 -9 -12 -15 -26z"/>
<path d="M465 2208 c0 -33 -4 -43 -17 -46 -13 -3 -18 3 -18 22 0 14 -5 28 -11
32 -9 5 -10 -7 -4 -42 4 -27 9 -51 11 -53 2 -3 17 4 32 16 21 16 28 29 30 67
2 33 -1 46 -10 46 -9 0 -13 -14 -13 -42z"/>
<path d="M508 2206 c3 -35 -1 -48 -20 -66 -22 -21 -22 -22 -1 -11 39 20 53 41
53 82 0 31 -4 39 -18 39 -14 0 -17 -7 -14 -44z"/>
<path d="M588 2220 c-6 -40 22 -38 33 3 6 22 4 27 -11 27 -12 0 -19 -9 -22
-30z"/>
<path d="M663 2240 c-13 -5 -23 -16 -23 -25 0 -17 16 -20 25 -5 4 7 28 8 66 4
43 -5 59 -3 59 5 0 7 5 9 10 6 6 -3 10 1 10 11 0 12 -4 14 -12 7 -24 -19 -64
-23 -84 -8 -22 17 -22 17 -51 5z"/>
<path d="M1462 2231 c6 -10 27 -22 47 -25 49 -8 51 1 2 14 -23 6 -41 15 -41
20 0 6 -5 10 -10 10 -6 0 -6 -7 2 -19z"/>
<path d="M1832 2183 c-91 -40 -62 -87 100 -166 32 -16 75 -45 95 -66 21 -20
56 -44 78 -52 30 -11 44 -25 62 -59 13 -25 37 -53 53 -62 40 -23 38 -10 -4 31
-19 19 -36 46 -38 60 -2 21 -12 29 -47 41 -24 8 -62 32 -85 52 -37 33 -39 37
-18 38 12 0 50 -11 84 -25 34 -14 63 -25 65 -25 2 0 3 11 3 24 0 13 7 27 17
30 21 9 71 -38 75 -71 2 -19 13 -28 42 -38 41 -15 96 -61 96 -82 0 -17 4 -17
-74 12 l-66 25 0 -32 0 -31 -25 23 c-27 25 -26 42 0 20 14 -12 15 -10 10 13
-11 41 1 47 56 26 28 -11 48 -15 45 -10 -4 5 -29 17 -56 26 -43 14 -50 20 -50
43 0 17 -8 32 -21 41 -20 12 -21 11 -17 -13 6 -32 -4 -33 -74 -5 -29 11 -48
16 -43 10 6 -6 35 -19 65 -29 52 -18 53 -19 54 -58 1 -28 9 -50 29 -73 15 -18
27 -27 27 -21 0 6 5 8 10 5 6 -4 9 -1 8 7 -2 8 5 12 17 11 11 -2 29 -4 41 -5
11 -1 21 -7 21 -13 0 -5 4 -18 8 -27 6 -15 2 -18 -29 -18 -44 0 -53 -17 -32
-58 17 -33 26 -37 98 -47 33 -5 57 -17 84 -41 36 -34 95 -59 80 -35 -4 6 -13
11 -20 11 -7 0 -25 17 -40 39 -26 37 -30 39 -94 44 -58 4 -69 9 -89 34 l-23
28 60 3 61 3 -21 26 c-25 32 -25 43 -2 43 11 0 42 -33 80 -82 95 -128 99 -132
106 -120 3 6 0 16 -7 24 -20 20 -131 168 -142 189 -5 11 -13 19 -17 19 -5 0
-8 6 -8 13 0 15 -55 59 -96 75 -19 8 -35 24 -42 45 -7 18 -28 42 -48 55 l-37
24 -29 -22 c-26 -19 -34 -20 -55 -11 l-26 12 21 22 c32 34 19 59 -58 111 -90
62 -144 72 -218 39z m203 -48 c76 -47 95 -78 59 -92 -21 -8 -69 21 -69 42 0
37 -92 59 -130 31 -18 -13 -16 -15 23 -35 24 -12 48 -21 55 -20 16 3 67 -22
67 -32 0 -5 -12 -12 -26 -15 -47 -12 -236 98 -218 127 3 6 25 20 48 30 58 28
103 19 191 -36z"/>
<path d="M1853 2155 c-40 -17 -41 -28 -4 -54 l28 -20 -4 24 c-4 20 0 25 36 36
36 11 47 10 76 -4 48 -23 44 -12 -5 13 -46 23 -82 25 -127 5z"/>
<path d="M2037 2103 c9 -27 24 -43 39 -43 23 0 16 17 -16 40 -27 19 -29 19
-23 3z"/>
<path d="M1910 2064 c0 -9 61 -34 82 -33 22 0 22 1 3 8 -38 15 -85 29 -85 25z"/>
<path d="M368 2193 c-3 -4 -3 -32 0 -60 4 -58 13 -63 62 -38 37 19 37 21 3 20
-25 0 -29 4 -33 39 -5 36 -23 58 -32 39z"/>
<path d="M2867 2097 c-10 -34 -20 -75 -23 -92 -4 -25 -2 -24 11 10 9 22 20 47
24 55 14 27 22 78 14 83 -5 3 -17 -22 -26 -56z"/>
<path d="M2563 2133 c-4 -10 -18 -28 -32 -40 -15 -14 -20 -23 -12 -23 13 0 71
58 71 73 0 14 -21 7 -27 -10z"/>
<path d="M254 2113 c-16 -16 -25 -25 -20 -20 23 17 47 6 62 -28 7 -19 14 -38
14 -43 0 -16 -52 -62 -70 -62 -22 0 -44 51 -38 85 4 20 3 23 -8 14 -27 -22
-10 -139 20 -139 6 0 35 22 64 49 38 35 52 55 52 75 0 31 -25 96 -37 96 -5 0
-22 -12 -39 -27z"/>
<path d="M1059 2106 c-3 -3 -27 -8 -54 -11 -72 -9 -211 -50 -289 -85 -38 -16
-72 -28 -76 -25 -5 3 -12 0 -16 -6 -4 -8 -3 -9 4 -5 7 4 12 5 12 2 0 -3 -15
-13 -32 -21 -24 -12 -28 -12 -15 -2 29 24 19 27 -18 6 -39 -23 -59 -47 -31
-36 9 4 15 3 12 -2 -3 -5 -17 -8 -32 -8 -46 0 -201 -180 -243 -282 -8 -17 -18
-31 -23 -31 -5 0 -7 -4 -4 -8 3 -5 -8 -42 -24 -83 -17 -43 -29 -93 -30 -121 0
-26 -3 -49 -7 -51 -5 -3 -9 -56 -11 -119 -5 -177 32 -335 121 -513 37 -75 109
-184 138 -210 12 -11 -3 14 -33 56 -100 139 -177 321 -197 462 -40 280 29 546
192 742 34 41 66 74 71 74 5 1 22 15 38 31 15 17 30 30 33 30 2 0 31 17 63 38
57 37 190 98 262 120 95 30 225 44 354 37 72 -3 147 -11 166 -16 20 -6 47 -9
60 -7 38 6 -80 30 -156 31 -35 1 -64 5 -64 10 0 7 -163 10 -171 3z"/>
<path d="M237 2072 c-20 -21 -22 -54 -6 -84 11 -20 11 -20 35 3 27 25 29 37
12 74 -13 30 -20 31 -41 7z"/>
<path d="M1480 2055 c0 -2 19 -9 42 -16 23 -6 64 -22 92 -35 27 -13 54 -24 58
-24 11 0 122 -55 171 -84 20 -12 34 -26 30 -31 -5 -4 -3 -5 4 -1 15 8 159
-107 236 -190 101 -109 126 -145 225 -324 30 -56 34 -67 73 -220 25 -99 35
-116 25 -45 -12 86 -47 197 -88 278 -21 43 -36 83 -32 89 4 6 3 8 -3 5 -13 -8
-76 90 -67 104 4 7 3 9 -3 6 -10 -6 -60 52 -55 66 1 4 -2 6 -7 5 -13 -4 -52
43 -45 54 3 4 0 7 -8 6 -7 -2 -12 3 -10 10 1 8 -1 11 -6 8 -11 -7 -65 48 -55
57 3 4 -4 7 -16 7 -14 0 -20 4 -15 12 4 7 3 8 -4 4 -6 -4 -17 2 -24 14 -7 11
-18 20 -25 20 -7 0 -13 5 -13 10 0 6 -5 10 -10 10 -6 0 -21 9 -33 20 -12 12
-45 33 -74 47 -28 15 -49 31 -46 36 3 6 1 7 -5 4 -5 -4 -41 7 -79 24 -103 47
-233 88 -233 74z"/>
<path d="M795 1980 c-3 -5 -15 -10 -26 -10 -10 0 -19 -5 -19 -11 0 -5 -4 -8
-9 -5 -13 8 -107 -43 -187 -102 -70 -51 -155 -145 -207 -228 -28 -45 -75 -153
-80 -181 -1 -10 -5 -23 -9 -28 -24 -39 -38 -263 -23 -366 3 -24 8 -55 10 -69
8 -53 16 -84 30 -103 13 -19 14 -17 8 17 -4 27 -2 41 8 47 11 7 11 9 -2 9 -18
0 -31 41 -19 60 4 6 1 32 -6 58 -16 60 -11 238 9 312 9 30 25 81 37 112 12 32
21 61 21 65 0 5 7 12 15 16 8 4 14 13 14 18 0 20 118 164 173 211 69 60 158
117 230 148 31 14 57 28 57 32 0 11 -18 10 -25 -2z"/>
<path d="M1313 1963 c-27 -31 -28 -41 -8 -70 14 -21 14 -21 -36 -25 -27 -1
-58 0 -67 3 -20 8 -39 -1 -23 -10 6 -4 1 -17 -16 -35 -14 -15 -28 -24 -32 -19
-3 4 -13 9 -21 11 -21 4 -64 25 -71 35 -7 10 -76 -9 -103 -28 -10 -8 -16 -21
-13 -28 7 -18 112 -67 141 -66 17 1 16 2 -6 9 -15 4 -43 18 -63 30 -30 19 -33
24 -22 41 6 10 14 19 17 19 10 0 75 -26 95 -37 20 -11 27 -13 45 -13 6 0 10
-5 10 -11 0 -7 -10 -9 -24 -7 -14 3 -31 1 -38 -3 -8 -6 -1 -9 22 -10 29 0 31
-2 15 -9 -18 -8 -17 -9 8 -9 18 -1 27 4 27 14 0 8 6 15 14 15 8 0 18 5 22 12
5 8 2 9 -10 5 -28 -11 -39 3 -20 24 9 10 21 16 25 13 5 -3 9 -1 9 5 0 29 103
49 139 27 6 -4 30 -9 54 -11 50 -4 147 -35 237 -77 71 -33 108 -58 112 -79 4
-17 85 -99 99 -99 5 0 -7 18 -28 41 -48 51 -58 69 -41 69 7 0 2 9 -12 20 l-25
20 23 0 c39 0 70 48 42 65 -5 3 -10 -2 -10 -12 0 -27 -20 -43 -52 -43 -49 0
-67 72 -23 92 19 9 29 8 49 -6 28 -18 36 -20 36 -8 0 5 -16 17 -36 28 -28 14
-38 16 -41 7 -3 -7 -10 -13 -16 -13 -19 0 -36 -36 -30 -61 5 -19 3 -21 -13
-14 -69 29 -227 85 -240 85 -16 0 -16 1 -1 18 10 10 17 26 17 36 0 25 -29 76
-43 76 -6 0 -21 2 -32 5 -13 3 -28 -5 -42 -22z m86 -19 c25 -32 26 -38 5 -58
-22 -23 -60 -20 -78 6 -20 28 -20 43 0 62 23 23 50 19 73 -10z"/>
<path d="M948 1953 c-16 -21 -16 -65 1 -71 6 -2 9 -8 5 -13 -3 -5 7 -9 23 -8
25 0 26 1 7 9 -30 12 -39 42 -18 57 24 18 30 16 49 -9 14 -20 16 -20 13 -4 -5
29 -34 43 -58 28 -11 -7 -20 -8 -20 -3 0 10 24 21 48 21 8 0 27 -10 41 -22
l24 -23 -19 27 c-23 33 -73 38 -96 11z"/>
<path d="M1054 1894 c3 -8 2 -12 -4 -9 -6 3 -10 1 -10 -4 0 -6 16 -11 36 -11
21 0 33 4 29 10 -3 6 -13 10 -21 10 -8 0 -14 5 -14 10 0 6 -5 10 -11 10 -6 0
-8 -7 -5 -16z"/>
<path d="M2670 1873 c-54 -31 -55 -32 -49 -37 2 -3 29 8 59 24 53 27 56 27 75
10 17 -16 25 -17 58 -7 20 7 37 15 37 19 0 11 -15 10 -44 -3 -19 -9 -29 -8
-47 5 -31 21 -36 20 -89 -11z"/>
<path d="M658 1840 c-37 -27 -76 -58 -85 -68 -53 -54 -93 -104 -93 -115 0 -6
6 -3 12 7 17 31 128 139 135 132 4 -3 -1 -14 -10 -24 -19 -21 -22 -33 -8 -29
5 1 16 -6 24 -17 8 -10 27 -19 44 -20 l30 -1 -47 -52 c-38 -41 -51 -65 -65
-120 -19 -77 -22 -270 -4 -338 33 -125 102 -280 120 -270 5 4 9 -4 9 -16 0
-12 3 -19 7 -16 3 4 15 -1 27 -10 19 -17 19 -16 -2 17 -33 53 -82 158 -105
225 -41 117 -25 393 28 495 39 74 98 136 163 172 37 21 60 38 51 38 -9 0 -41
-13 -72 -30 -56 -30 -56 -30 -67 -9 -7 11 -25 26 -42 33 l-30 13 32 26 c53 45
19 30 -52 -23z m62 -40 c23 -23 24 -33 10 -61 -21 -38 -90 -11 -90 36 0 45 45
60 80 25z"/>
<path d="M1403 1788 c7 -10 26 -21 44 -24 55 -10 54 0 -2 22 -49 19 -52 19
-42 2z"/>
<path d="M1179 1722 c-39 -14 -135 -82 -116 -82 3 0 -5 -11 -18 -25 -14 -13
-25 -32 -25 -42 0 -10 -16 -49 -35 -88 -42 -85 -45 -139 -11 -204 15 -29 26
-40 31 -32 7 12 43 -42 61 -91 3 -9 12 -19 19 -22 9 -3 8 5 -5 27 -34 57 -63
185 -55 241 13 100 90 225 165 267 22 12 40 27 40 31 0 5 -6 6 -12 1 -20 -12
-37 -12 -45 -1 -3 6 -1 8 4 5 6 -4 22 2 34 13 29 23 27 23 -32 2z m-15 -50
c-30 -21 -52 -41 -81 -75 -28 -32 -33 -34 -33 -17 0 26 65 98 94 102 25 4 34
0 20 -10z m-171 -337 c2 -11 2 -14 0 -7 -3 6 -8 12 -12 12 -4 0 -7 17 -8 38
-1 36 -1 36 7 7 5 -16 10 -39 13 -50z"/>
<path d="M793 1698 c-25 -27 -63 -103 -89 -176 -24 -69 -14 -86 52 -90 88 -6
133 6 173 46 46 46 65 91 57 135 -5 28 -16 39 -72 70 -78 43 -93 45 -121 15z
m67 -8 c13 -9 13 -11 0 -20 -13 -8 -13 -10 1 -10 13 0 15 -13 11 -87 -3 -49
-10 -91 -16 -95 -15 -10 -134 -10 -140 0 -7 11 18 81 50 142 18 35 32 50 46
50 14 0 18 5 14 15 -6 17 12 20 34 5z m57 -39 c3 -11 11 -17 18 -15 25 10 37
-32 21 -71 -15 -36 -30 -44 -40 -22 -4 6 -4 2 -2 -10 2 -13 -4 -29 -15 -39
-18 -17 -19 -15 -19 48 0 78 9 128 22 128 6 0 12 -9 15 -19z"/>
<path d="M2455 1712 c6 -11 -5 -13 -53 -10 -54 3 -59 1 -51 -14 6 -12 26 -17
76 -20 38 -2 69 -3 70 -3 0 0 -10 14 -24 30 -14 17 -22 24 -18 17z"/>
<path d="M1800 1672 c0 -6 22 -30 49 -54 84 -75 180 -193 170 -209 -11 -17
-11 -65 -1 -99 6 -20 8 -14 12 29 5 58 25 79 36 37 6 -24 34 -57 34 -41 0 14
-51 95 -59 95 -8 0 -22 32 -25 55 -1 5 -22 28 -48 50 -27 22 -75 64 -108 93
-33 30 -60 49 -60 44z"/>
<path d="M1260 1647 c-53 -25 -147 -117 -156 -152 -3 -14 -10 -22 -15 -19 -5
3 -6 -2 -3 -11 4 -8 1 -22 -6 -30 -7 -8 -10 -15 -7 -15 3 0 2 -14 -4 -32 -11
-41 11 -138 46 -198 58 -99 75 -125 75 -119 0 11 -34 81 -58 119 -24 38 -31
83 -10 62 14 -14 28 -16 28 -3 0 5 -9 11 -20 14 -22 6 -27 36 -7 56 10 11 8
12 -11 6 -23 -7 -24 -6 -19 47 6 77 13 97 49 148 37 52 108 120 124 120 7 0
25 7 40 15 45 23 5 17 -46 -8z"/>
<path d="M490 1628 c-11 -18 -20 -36 -20 -40 0 -5 -4 -8 -10 -8 -5 0 -7 8 -3
18 4 11 -3 8 -19 -10 -32 -33 -72 -138 -93 -243 -15 -76 -22 -276 -10 -296 4
-5 8 -32 11 -61 2 -29 8 -56 14 -62 11 -11 6 96 -5 114 -6 10 -7 119 -1 164 7
52 52 67 84 28 31 -40 -11 -87 -57 -63 -19 11 -21 9 -21 -14 0 -29 13 -31 64
-10 32 14 36 19 36 53 0 46 -7 57 -45 66 -16 4 -33 13 -37 19 -5 8 -8 6 -8 -5
0 -9 -5 -20 -12 -24 -8 -5 -9 10 -4 58 12 121 74 258 116 258 28 0 63 -38 57
-61 -3 -10 -1 -17 4 -13 13 7 12 1 -10 -54 -27 -68 -37 -206 -21 -282 7 -33
16 -62 19 -64 8 -5 6 68 -2 81 -10 16 1 216 13 248 20 51 29 86 21 80 -5 -2
-11 9 -14 25 -4 17 -17 34 -32 42 l-25 14 20 37 c25 46 17 49 -10 5z"/>
<path d="M2902 1645 c-13 -7 -29 -18 -35 -24 -22 -22 19 -11 53 14 35 26 23
33 -18 10z"/>
<path d="M1983 1588 c-9 -10 -14 -20 -11 -23 3 -3 11 1 18 10 28 34 90 10 90
-35 0 -22 -7 -33 -26 -43 -21 -11 -23 -15 -11 -20 17 -6 41 17 52 51 l7 24 25
-24 26 -23 -14 23 c-8 12 -17 22 -21 22 -4 0 -17 11 -30 24 -30 31 -83 39
-105 14z"/>
<path d="M2847 1562 c-30 -32 -37 -52 -9 -24 10 9 27 22 37 28 11 6 15 13 8
17 -5 3 -22 -6 -36 -21z"/>
<path d="M1999 1563 c-13 -15 -12 -15 7 -5 15 8 24 8 32 0 7 -7 15 -8 19 -4 8
8 -15 26 -33 26 -6 0 -18 -7 -25 -17z"/>
<path d="M450 1550 c-12 -8 -11 -10 7 -10 12 0 25 -4 28 -10 3 -5 11 -10 17
-10 6 0 3 9 -7 20 -21 23 -24 23 -45 10z"/>
<path d="M412 1477 c-16 -61 -16 -62 12 -31 l23 28 12 -22 c14 -26 33 -30 24
-5 -4 10 -2 14 4 10 6 -4 16 0 23 8 11 13 7 15 -23 15 -24 0 -39 6 -49 22 -14
21 -15 20 -26 -25z"/>
<path d="M1790 1496 c0 -5 14 -39 31 -75 38 -80 46 -132 29 -203 -7 -29 -12
-55 -11 -57 2 -2 -1 -7 -6 -10 -5 -3 -24 -26 -41 -51 -44 -63 -64 -85 -85 -93
-15 -5 -17 -2 -13 28 3 20 1 33 -4 30 -5 -3 -11 -1 -15 5 -3 5 -19 10 -36 10
-25 0 -29 -4 -29 -29 0 -17 4 -32 9 -35 5 -4 7 3 4 13 -6 25 35 50 48 30 14
-22 10 -49 -6 -55 -8 -4 -15 -12 -15 -19 0 -7 -6 -16 -12 -18 -9 -4 -10 -6 -1
-6 6 -1 19 6 27 15 9 8 20 13 25 10 12 -8 82 45 119 90 48 58 65 121 60 218
-4 62 -11 93 -31 131 -32 60 -47 83 -47 71z"/>
<path d="M1743 1454 c8 -16 13 -45 11 -64 l-4 -35 14 30 c12 26 12 34 0 57 -8
15 -19 30 -25 33 -6 4 -4 -6 4 -21z"/>
<path d="M386 1388 c-3 -13 -6 -32 -6 -43 1 -16 2 -17 9 -5 14 25 22 70 12 70
-5 0 -11 -10 -15 -22z"/>
<path d="M2965 1390 c-11 -5 -32 -9 -47 -9 -16 -1 -28 -6 -28 -12 0 -6 8 -8
18 -6 9 3 34 8 55 12 20 3 37 10 37 15 0 12 -8 12 -35 0z"/>
<path d="M2219 1373 c6 -10 20 -29 32 -43 20 -24 20 -23 -2 18 -12 23 -27 42
-31 42 -5 0 -4 -8 1 -17z"/>
<path d="M2830 1390 c0 -15 69 -213 70 -200 0 24 -42 163 -57 185 -7 11 -13
17 -13 15z"/>
<path d="M1950 1348 c0 -13 4 -29 9 -37 6 -10 9 -2 9 23 0 20 -4 36 -9 36 -5
0 -9 -10 -9 -22z"/>
<path d="M2288 1343 c6 -2 12 -14 12 -25 0 -10 7 -26 16 -35 8 -9 13 -21 11
-28 -3 -6 1 -12 8 -12 15 0 9 24 -13 50 -8 9 -12 17 -8 17 4 0 2 9 -4 20 -6
11 -16 20 -23 19 -9 0 -9 -2 1 -6z"/>
<path d="M696 1320 c-29 -24 -30 -30 -12 -115 7 -36 48 -150 59 -162 19 -26
27 -12 8 15 -21 28 -45 108 -55 180 -6 38 -4 43 16 51 13 5 26 7 31 4 4 -2 7
2 7 9 0 10 15 13 60 10 47 -2 66 -8 83 -25 12 -12 21 -25 19 -29 -1 -5 2 -8 8
-8 6 0 10 -16 10 -36 0 -21 4 -33 10 -29 13 8 13 44 -1 83 -16 46 -51 63 -138
69 -68 5 -79 3 -105 -17z"/>
<path d="M1167 1290 c3 -11 10 -17 16 -13 6 4 8 0 4 -10 -9 -25 -4 -21 23 16
22 30 22 31 2 13 -19 -17 -22 -17 -22 -3 0 10 -6 17 -14 17 -9 0 -12 -7 -9
-20z"/>
<path d="M2183 1271 c-15 -25 -5 -38 25 -33 22 3 31 -2 39 -20 7 -13 12 -17
12 -8 1 27 -17 43 -49 43 -24 0 -28 2 -15 10 9 5 23 6 31 3 8 -3 14 -2 14 3 0
17 -47 18 -57 2z"/>
<path d="M2270 1290 c0 -15 49 -142 49 -129 1 20 -29 111 -40 124 -5 5 -9 7
-9 5z"/>
<path d="M2945 1238 c-4 -24 -9 -56 -11 -71 -4 -27 29 -112 49 -124 12 -7 23
7 11 15 -5 4 -19 26 -30 49 -18 36 -20 51 -12 104 9 70 4 94 -7 27z"/>
<path d="M2130 1241 c0 -11 11 -51 25 -90 17 -46 26 -93 27 -136 0 -36 5 -68
9 -71 20 -12 0 164 -28 254 -17 56 -33 77 -33 43z"/>
<path d="M1555 1214 c23 -57 26 -100 10 -149 -21 -66 -23 -69 -75 -99 l-45
-26 37 0 c41 0 90 33 82 55 -3 7 4 31 15 54 12 22 21 51 21 63 0 37 -26 112
-40 116 -9 3 -11 -1 -5 -14z"/>
<path d="M2270 1200 c0 -20 -46 -33 -71 -20 -23 12 -23 11 -7 -5 22 -24 84
-13 91 15 3 11 1 20 -4 20 -5 0 -9 -5 -9 -10z"/>
<path d="M2375 1105 c17 -97 22 -144 21 -227 -1 -51 -6 -92 -13 -99 -6 -6 -9
-18 -6 -25 3 -8 -1 -14 -8 -14 -11 0 -11 -2 1 -10 13 -8 12 -17 -8 -72 -12
-35 -22 -68 -22 -75 0 -7 -13 -35 -30 -63 -16 -27 -27 -50 -24 -50 2 0 0 -6
-5 -12 -41 -51 -111 -151 -108 -155 3 -2 20 15 38 38 19 23 40 47 47 54 6 8
12 17 12 20 0 4 14 26 30 49 65 89 109 265 109 431 0 98 -18 228 -34 243 -4 4
-5 -11 0 -33z"/>
<path d="M1468 1117 c-7 -8 -23 -19 -36 -26 -25 -13 -31 -36 -6 -27 8 3 12 2
9 -4 -10 -17 11 -11 27 8 16 17 33 62 24 62 -2 0 -11 -6 -18 -13z"/>
<path d="M2921 1043 c5 -21 9 -63 10 -93 2 -48 3 -50 6 -15 6 50 -6 145 -17
145 -4 0 -4 -17 1 -37z"/>
<path d="M2438 1013 c-2 -10 -1 -56 3 -103 l6 -85 1 103 c2 97 -1 123 -10 85z"/>
<path d="M2463 965 c0 -33 2 -45 4 -27 2 18 2 45 0 60 -2 15 -4 0 -4 -33z"/>
<path d="M397 960 c6 -58 15 -70 49 -70 11 0 24 -3 30 -7 5 -5 -1 2 -14 15
-24 23 -48 30 -36 10 4 -7 3 -8 -5 -4 -6 4 -9 16 -6 25 3 10 -1 33 -10 52
l-15 34 7 -55z"/>
<path d="M917 962 c-75 -40 -93 -71 -62 -100 16 -16 17 -16 6 5 -18 35 -14 41
44 68 30 15 57 30 60 36 4 5 24 9 46 9 30 0 38 -3 33 -12 -5 -9 -2 -9 9 1 11
9 17 10 17 2 0 -6 6 -11 13 -11 19 0 50 -37 42 -49 -3 -6 -1 -11 4 -11 22 0
10 34 -25 66 -49 47 -96 46 -187 -4z"/>
<path d="M2104 990 c-6 -6 -21 -12 -34 -15 -26 -5 -40 -15 -21 -15 7 0 0 -10
-15 -23 -25 -22 -25 -24 -10 -40 39 -39 109 -5 109 52 0 37 -14 56 -29 41z m5
-41 c-6 -3 -9 -11 -7 -18 5 -21 -26 -35 -58 -27 l-29 8 28 20 c15 11 24 25 21
30 -4 6 -3 8 2 5 6 -3 16 -2 24 3 9 6 17 5 22 -3 4 -6 2 -14 -3 -18z"/>
<path d="M506 953 c24 -105 147 -298 255 -401 73 -68 174 -141 198 -142 8 0
11 -6 7 -16 -3 -9 -2 -12 5 -9 5 4 33 -4 62 -18 184 -89 392 -118 581 -82 120
23 227 65 281 110 12 10 4 8 -20 -5 -37 -21 -128 -59 -150 -64 -5 -1 -37 -9
-70 -17 -39 -9 -116 -14 -220 -13 -149 0 -166 2 -240 28 -91 31 -197 77 -205
87 -3 4 -18 11 -33 14 -15 4 -31 15 -36 24 -5 9 -13 15 -18 15 -18 -4 -131 95
-129 113 0 12 -7 19 -21 21 -13 2 -23 8 -23 13 0 6 5 7 12 3 7 -5 8 -3 4 5 -5
7 -10 10 -13 7 -9 -8 -47 33 -50 54 -2 17 -11 30 -48 74 -15 18 -32 45 -60 99
-14 26 -30 47 -36 47 -8 0 -8 4 -1 13 13 15 -5 58 -26 65 -9 3 -11 -4 -6 -25z"/>
<path d="M2247 941 c-40 -26 -40 -27 -1 -23 40 5 64 -11 64 -42 0 -44 -52 -62
-84 -30 -15 14 -16 14 -16 -1 0 -8 8 -19 18 -22 9 -4 20 -10 23 -15 3 -5 24 2
47 14 39 22 41 25 40 67 0 34 -3 40 -10 27 -9 -16 -12 -16 -31 5 -12 13 -21
27 -19 31 3 10 2 10 -31 -11z"/>
<path d="M372 870 c11 -32 48 -62 48 -38 -1 13 -44 68 -54 68 -3 0 0 -14 6
-30z"/>
<path d="M2187 894 c-4 -4 -7 -19 -7 -33 0 -14 -11 -46 -25 -70 -24 -42 -39
-104 -28 -115 9 -8 36 58 57 136 17 65 19 97 3 82z"/>
<path d="M506 855 c-3 -8 -17 -17 -31 -21 -29 -7 -34 -24 -6 -24 23 0 51 25
51 46 0 18 -6 18 -14 -1z"/>
<path d="M2939 853 c-10 -143 -33 -298 -55 -373 -19 -63 -61 -165 -83 -200 -6
-8 -28 -47 -51 -87 -22 -39 -46 -78 -53 -85 -6 -8 -16 -21 -22 -30 -5 -9 -20
-30 -33 -47 -13 -17 -19 -31 -13 -31 5 0 37 37 71 83 109 148 206 381 229 552
14 104 23 225 16 225 -3 0 -5 -3 -6 -7z"/>
<path d="M630 836 c0 -10 95 -133 127 -163 39 -37 26 -14 -28 47 -28 32 -48
64 -44 69 3 6 -2 14 -12 18 -10 4 -23 14 -30 22 -7 9 -13 12 -13 7z"/>
<path d="M2307 784 c-12 -72 -49 -171 -78 -204 -16 -19 -34 -41 -39 -47 -15
-18 -50 -16 -72 4 -17 15 -18 15 -18 0 0 -19 40 -32 70 -24 11 3 20 3 20 0 0
-10 -73 -108 -89 -120 -50 -37 -54 -41 -46 -53 10 -16 145 122 145 148 0 9 14
31 32 49 17 18 32 40 33 50 4 38 18 73 26 67 5 -3 9 3 10 13 1 33 7 58 24 119
4 12 2 24 -3 28 -5 3 -12 -10 -15 -30z"/>
<path d="M1325 796 c-17 -7 -37 -21 -45 -32 -13 -15 -10 -15 21 4 40 24 64 29
53 10 -4 -7 2 -5 14 5 13 12 26 16 34 11 7 -5 20 -9 28 -11 8 -1 16 -7 18 -13
2 -5 8 -8 13 -4 5 3 18 -14 28 -38 11 -24 20 -35 20 -25 1 29 -38 78 -75 93
-41 17 -70 17 -109 0z"/>
<path d="M1733 802 c-23 -3 -34 -42 -12 -42 6 0 9 6 6 13 -4 10 11 13 58 12
l63 0 37 -48 c22 -29 34 -52 28 -58 -5 -5 -48 -12 -96 -15 -48 -4 -86 -9 -84
-11 2 -2 41 -4 87 -4 122 -1 140 31 67 116 -30 34 -38 38 -83 39 -27 1 -59 0
-71 -2z"/>
<path d="M2976 771 c-10 -21 -16 -49 -13 -62 3 -19 5 -17 6 9 0 18 7 35 14 38
11 4 23 54 13 54 -1 0 -11 -17 -20 -39z"/>
<path d="M2424 702 c10 -17 -18 -99 -64 -193 -25 -50 -33 -76 -24 -76 7 0 11
3 9 7 -2 4 3 16 11 26 9 10 13 13 9 7 -3 -7 -2 -21 4 -30 8 -14 9 -10 7 17 -1
19 7 59 19 89 20 48 23 52 30 32 4 -12 9 -20 12 -18 2 3 0 15 -7 26 -8 16 -8
32 0 62 9 32 9 44 -1 53 -9 8 -10 8 -5 -2z"/>
<path d="M2094 618 c-16 -24 -47 -60 -69 -80 -21 -21 -36 -38 -32 -38 4 0 -10
-15 -31 -34 -20 -19 -34 -37 -31 -41 8 -8 105 86 145 140 34 47 82 59 115 29
19 -17 20 -17 13 0 -9 24 -50 39 -75 26 -22 -12 -24 -7 -9 21 18 33 4 21 -26
-23z"/>
<path d="M602 621 c-12 -10 -19 -21 -15 -25 3 -3 1 -6 -5 -6 -7 0 -12 -7 -12
-15 0 -8 5 -15 10 -15 6 0 10 -7 10 -15 0 -19 35 -37 63 -33 19 3 17 6 -15 22
-42 20 -52 39 -37 68 8 16 18 19 46 16 31 -4 33 -3 17 9 -24 18 -37 16 -62 -6z"/>
<path d="M695 584 c3 -13 -1 -26 -10 -34 -12 -10 -13 -15 -3 -21 6 -4 16 -5
20 -3 11 7 10 46 -3 64 -8 12 -9 11 -4 -6z"/>
<path d="M2125 590 c-3 -6 4 -10 17 -10 13 0 29 -5 36 -12 7 -7 12 -8 12 -2 0
27 -51 46 -65 24z"/>
<path d="M12 511 c-16 -10 -18 -21 -5 -30 5 -3 35 -42 67 -86 32 -44 64 -84
72 -88 8 -4 14 -13 14 -20 1 -13 54 -71 119 -130 l42 -38 70 7 69 7 0 -30 c0
-16 -5 -34 -11 -40 -19 -19 -2 -63 23 -63 l22 0 -21 15 -22 15 21 53 c28 68
34 74 56 54 10 -9 21 -14 25 -11 3 3 3 -2 1 -13 -6 -21 39 -59 84 -73 15 -4
35 -11 45 -15 10 -4 17 -3 17 4 0 6 -9 11 -20 11 -11 0 -20 5 -20 10 0 6 -7
10 -15 10 -9 0 -39 23 -67 51 -49 49 -53 51 -92 44 -23 -4 -66 -10 -96 -15
l-55 -8 -72 71 c-40 39 -73 75 -73 79 0 23 40 2 87 -44 29 -29 53 -47 53 -40
0 8 5 10 13 6 8 -5 8 -3 -2 9 -7 9 -17 15 -21 12 -4 -2 -20 9 -35 25 -47 49 1
38 51 -11 41 -40 44 -41 81 -31 l38 10 -34 1 c-25 1 -43 11 -73 41 -28 28 -49
40 -68 40 -37 0 -61 10 -54 21 3 5 0 9 -5 9 -6 0 -11 7 -11 15 0 10 10 15 30
15 17 0 30 5 30 10 0 6 -25 10 -55 10 -53 0 -55 -1 -45 -20 6 -11 15 -20 19
-20 5 0 11 -7 15 -15 4 -11 -1 -15 -17 -15 -16 0 -40 24 -90 91 -37 50 -67 95
-67 100 0 21 30 6 54 -26 26 -34 29 -35 95 -35 63 0 69 -2 76 -22 4 -15 8 -18
12 -10 9 24 -17 39 -75 44 -48 5 -64 11 -89 37 -31 31 -65 39 -91 22z"/>
<path d="M2930 472 c0 -4 17 -9 38 -10 27 -2 33 0 22 8 -18 12 -60 13 -60 2z"/>
<path d="M120 406 c16 -20 124 -23 118 -3 -3 7 -28 13 -68 15 -56 3 -62 1 -50
-12z"/>
<path d="M2908 369 c-15 -22 -24 -39 -20 -38 11 0 54 58 50 68 -2 5 -15 -9
-30 -30z"/>
<path d="M1927 383 c12 -2 27 -11 33 -19 7 -8 17 -14 23 -14 5 0 2 9 -8 20
-10 11 -29 19 -44 19 -23 -2 -23 -2 -4 -6z"/>
<path d="M862 343 c2 -20 14 -32 48 -49 25 -13 50 -23 55 -23 6 0 4 3 -2 6
-20 8 -15 23 7 23 15 0 20 7 20 29 0 17 -4 33 -10 36 -6 3 -7 -1 -4 -10 9 -23
-14 -45 -48 -45 -23 0 -31 6 -39 30 -13 37 -31 39 -27 3z"/>
<path d="M1870 326 c0 -9 14 -25 32 -36 l31 -19 -38 -22 c-22 -13 -33 -25 -25
-27 7 -3 16 2 21 9 5 8 9 10 9 6 0 -10 32 7 98 51 48 33 71 62 37 48 -8 -3
-22 -9 -30 -12 -9 -4 -15 -1 -15 7 0 8 -6 3 -13 -11 -18 -36 -59 -38 -86 -4
-15 19 -21 22 -21 10z"/>
<path d="M1230 239 c0 -5 5 -7 10 -4 16 10 50 -5 50 -22 0 -9 3 -14 6 -10 3 3
3 15 -1 26 -4 15 -15 21 -36 21 -16 0 -29 -5 -29 -11z"/>
<path d="M2437 232 c-26 -29 -20 -38 8 -12 14 13 27 22 29 19 2 -2 15 -35 29
-74 14 -38 26 -61 26 -50 1 12 -8 45 -18 75 -21 61 -45 74 -74 42z"/>
<path d="M2135 220 c-10 -11 -34 -30 -52 -41 -19 -12 -32 -24 -29 -26 7 -7 67
32 89 57 24 28 16 37 -8 10z"/>
<path d="M2890 211 c0 -14 -5 -18 -19 -14 -10 3 -22 0 -25 -6 -5 -7 3 -11 21
-11 33 0 62 34 38 44 -10 3 -15 -1 -15 -13z"/>
<path d="M56 201 c-26 -28 -16 -43 14 -21 18 13 22 22 14 30 -7 7 -16 5 -28
-9z"/>
<path d="M2453 209 c-8 -8 -6 -25 7 -65 11 -30 16 -54 12 -54 -4 0 -22 9 -41
21 -18 11 -34 19 -36 17 -1 -2 -5 -31 -9 -66 -5 -41 -3 -62 4 -62 5 0 10 17
10 38 0 52 11 66 36 47 26 -20 51 -19 62 3 12 24 -29 137 -45 121z"/>
<path d="M1210 195 c15 -18 14 -18 -28 -6 -17 5 -32 8 -32 5 0 -7 69 -33 87
-32 10 1 30 -2 46 -5 16 -4 27 -3 27 2 0 6 8 8 18 5 14 -5 15 -4 2 5 -8 6 -31
11 -51 11 -20 0 -42 7 -49 15 -7 8 -17 15 -22 15 -6 0 -5 -7 2 -15z"/>
<path d="M336 182 c-25 -6 -27 -9 -14 -20 19 -16 131 -5 125 12 -4 13 -69 17
-111 8z"/>
<path d="M1690 180 c0 -5 -13 -10 -29 -10 -38 0 -48 -15 -12 -18 17 -1 35 6
46 18 10 11 13 20 7 20 -7 0 -12 -4 -12 -10z"/>
<path d="M2417 176 c-4 -9 -13 -13 -21 -10 -9 3 -21 -5 -31 -20 -10 -14 -23
-26 -30 -26 -7 0 -24 -13 -37 -29 -13 -15 -36 -36 -51 -46 -41 -26 -32 -37 10
-13 l36 22 -5 -27 c-4 -21 -1 -27 12 -27 16 0 17 4 7 35 -9 29 -7 38 8 55 25
27 31 25 42 -13 9 -31 10 -31 17 26 l8 58 35 -22 35 -22 -7 24 c-13 43 -21 53
-28 35z"/>
<path d="M2890 162 c0 -7 -8 -12 -18 -12 -10 0 -26 -6 -36 -13 -18 -13 -18
-14 -1 -21 20 -7 75 37 62 50 -4 4 -7 2 -7 -4z"/>
<path d="M491 79 c-11 -36 -10 -43 5 -60 14 -16 30 -19 96 -18 66 1 77 3 67
15 -8 10 -28 12 -86 7 l-75 -6 7 24 c4 13 11 28 16 33 14 15 11 46 -4 46 -8 0
-19 -18 -26 -41z"/>
<path d="M2504 69 c-17 -19 -28 -20 -66 -4 -15 6 -18 2 -17 -21 1 -18 3 -22 6
-11 4 14 11 16 36 12 26 -5 36 -2 55 19 26 31 14 35 -14 5z"/>
<path d="M2325 70 c-12 -20 5 -70 25 -70 18 0 18 2 3 38 -18 45 -19 46 -28 32z"/>
<path d="M2709 34 c-5 -15 -7 -29 -4 -32 3 -3 5 -1 5 4 0 5 4 15 9 22 6 11 15
9 45 -7 41 -23 46 -25 46 -13 0 4 -20 18 -45 30 l-46 22 -10 -26z"/>
</g>
</svg>
